<?xml version="1.0" encoding="UTF-8"?><svg id="Layer_1" xmlns="http://www.w3.org/2000/svg" viewBox="0 0 1025 1025"><path d="M849.14,1024.5H175.86c-96.85,0-175.36-78.51-175.36-175.36V175.86C.5,79.01,79.01.5,175.86.5h673.28c96.85,0,175.36,78.51,175.36,175.36v673.28c0,96.85-78.51,175.36-175.36,175.36Z" style="fill:#1d1b1f; stroke:#231f20; stroke-miterlimit:10;"/><path d="M384.23,450.21c-1.38,6-2.77,12-4.61,17.53,81.21,14.3,111.2,65.06,111.2,119.5,0,73.36-62.75,117.66-178.1,130.58-1.85-6.46-8.31-20.3-12.46-27.68,95.51-9.23,156.88-42.45,156.88-101.97v-3.23c-2.31-53.52-38.3-79.82-87.67-88.13-19.84,52.14-53.52,100.58-91.82,135.65,3.23,9.69,7.38,18,12,24.92l-27.22,17.07c-4.15-6.46-7.84-14.3-11.07-23.07-36.91,27.22-66.44,34.61-87.2,34.61-36.91,0-55.83-27.22-55.83-61.37,0-63.67,52.6-114.43,119.5-141.19-.92-23.99-.92-50.29-.46-77.51-77.98,0-86.28,0-101.51-.92l-.92-30.45c23.53,1.38,63.67,1.38,103.35,1.38.46-21.22,1.38-47.06,2.31-68.75l46.14,3.23c-.46,4.61-5.08,8.31-12,9.23-1.38,17.07-2.31,38.3-3.69,55.37,50.29-1.38,138.42-7.38,185.02-19.38l4.15,31.38c-48.91,12-137.96,16.61-190.56,17.99-.92,23.99-1.38,47.06-.92,68.75,32.3-10.15,61.37-10.61,69.21-10.61,6.92,0,12.92,0,18.92.46,1.84-7.38,3.23-14.3,4.61-21.69l32.76,8.31ZM242.59,622.31c-7.38-28.61-11.54-65.06-13.38-107.97-50.29,22.15-89.51,60.44-89.51,105.2,0,27.22,15.23,36.45,31.84,35.53,21.69-.46,46.6-12.92,71.06-32.76ZM337.17,492.66c-7.38-.46-43.37-1.38-77.98,11.07.92,37.37,4.15,69.21,10.61,95.05,27.68-28.15,52.6-65.52,67.36-106.12Z" style="fill:#cabbdc;"/><path d="M916.68,420.68c-.92,1.85-1.85,4.15-4.15,6-6,132.88-18.92,216.39-36.91,249.15-18.46,31.84-45.22,33.22-60.44,33.22-18,0-50.75-4.15-82.59-10.61.92-9.23,0-23.07-1.38-32.76,34.6,7.84,70.13,11.54,80.74,11.54,16.61,0,25.84-4.15,35.53-21.69,13.84-28.15,25.38-105.66,29.99-209.47h-147.65c-23.07,110.27-68.75,201.63-152.26,264.38-5.54-6-17.53-14.76-26.3-20.3,79.82-59.98,121.81-138.88,143.96-244.08h-127.35v-30.91h133.8c5.54-32.76,8.31-62.29,10.61-100.58l45.68,3.69c-.46,5.08-4.61,7.84-11.53,8.31-2.77,33.68-5.08,59.06-10.15,88.59h149.49l7.38-2.77,23.53,8.31Z" style="fill:#cabbdc;"/></svg>